# xmcd CD database file
#
# Track frame offsets:
#	150
#	30846
#	64356
#	99289
#	132602
#	165421
#	200446
#	231269
#
# Disc length: 3573 seconds
#
# Revision: 0
# Processed by: cddbd v1.5.2PL0 Copyright (c) Steve Scherf et al.
# Submitted via: CDex 1.51
#
DISCID=640df308
DTITLE=Gary Versace - Outside In
DYEAR=2008
DGENRE=Jazz
TTITLE0=Dangerous Land
TTITLE1=The Grand Inquisitor
TTITLE2=Blue Soup
TTITLE3=Now Is Then
TTITLE4=Poster Boy
TTITLE5=Pinwheel
TTITLE6=A Thousand Words
TTITLE7=Many Places
EXTD=YEAR: 2008
EXTT0=
EXTT1=
EXTT2=
EXTT3=
EXTT4=
EXTT5=
EXTT6=
EXTT7=
PLAYORDER=
